<?xml version="1.0" standalone="no"?>
<!DOCTYPE svg PUBLIC "-//W3C//DTD SVG 20010904//EN"
 "http://www.w3.org/TR/2001/REC-SVG-20010904/DTD/svg10.dtd">
<svg version="1.0" xmlns="http://www.w3.org/2000/svg"
 width="177.000000pt" height="106.000000pt" viewBox="0 0 177.000000 106.000000"
 preserveAspectRatio="xMidYMid meet">
<metadata>
Created by potrace 1.13, written by Peter Selinger 2001-2015
</metadata>
<g transform="translate(0.000000,106.000000) scale(0.100000,-0.100000)"
fill="#000000" stroke="none">
<path d="M460 831 l-135 -129 130 -131 c71 -72 134 -131 140 -131 6 0 31 20
55 45 l44 45 -24 25 -24 25 -23 -22 -24 -22 -82 82 -82 82 81 81 82 81 82 -81
83 -82 -32 -32 -31 -33 25 -24 25 -24 55 54 c30 30 55 57 55 60 0 7 -247 254
-258 257 -4 2 -68 -55 -142 -126z"/>
<path d="M1117 919 l-48 -42 27 -28 c28 -29 28 -29 49 -9 l20 19 85 -79 85
-79 -82 -83 -83 -83 -82 82 -82 82 29 31 29 30 -27 28 -27 27 -57 -58 -58 -57
135 -135 135 -135 135 135 135 135 -130 130 c-71 71 -132 130 -135 130 -3 0
-27 -19 -53 -41z"/>
<path d="M697 229 c-27 -16 -47 -64 -47 -115 0 -39 5 -51 34 -80 39 -39 85
-45 126 -17 17 12 25 13 28 5 10 -31 22 -6 22 48 l0 60 -50 0 c-38 0 -50 -4
-50 -15 0 -10 11 -15 35 -15 41 0 46 -19 15 -50 -51 -51 -130 -7 -130 72 0 53
47 103 88 94 15 -4 35 -16 44 -27 10 -11 25 -19 35 -17 15 3 13 9 -14 36 -26
26 -39 32 -75 32 -24 0 -51 -5 -61 -11z"/>
</g>
</svg>
